<?xml version="1.0" standalone="no"?>
<!DOCTYPE svg PUBLIC "-//W3C//DTD SVG 20010904//EN"
 "http://www.w3.org/TR/2001/REC-SVG-20010904/DTD/svg10.dtd">
<svg version="1.0" xmlns="http://www.w3.org/2000/svg"
 width="928.000000pt" height="928.000000pt" viewBox="0 0 928.000000 928.000000"
 preserveAspectRatio="xMidYMid meet">
<metadata>
Created by potrace 1.11, written by Peter Selinger 2001-2013
</metadata>
<g transform="translate(0.000000,928.000000) scale(0.100000,-0.100000)"
fill="#000000" stroke="none">
<path d="M4418 9275 c-1 -1 -43 -6 -93 -10 -49 -3 -99 -8 -110 -10 -11 -3 -40
-7 -65 -10 -25 -3 -56 -7 -70 -10 -14 -3 -38 -7 -55 -10 -16 -2 -41 -6 -55 -9
-14 -3 -37 -8 -52 -11 -16 -3 -40 -8 -55 -11 -16 -4 -35 -8 -43 -9 -8 -1 -22
-5 -30 -8 -8 -3 -44 -13 -80 -22 -106 -28 -272 -81 -341 -110 -35 -14 -71 -28
-79 -30 -50 -11 -440 -204 -468 -232 -7 -7 -18 -13 -24 -13 -5 0 -28 -13 -51
-29 -23 -15 -85 -56 -137 -91 -52 -35 -101 -70 -107 -78 -7 -9 -13 -12 -13 -8
0 5 -17 -7 -38 -25 -22 -19 -51 -43 -66 -53 -14 -11 -37 -29 -49 -40 -13 -12
-54 -48 -92 -81 -37 -33 -104 -98 -149 -144 -45 -47 -90 -94 -102 -105 -23
-24 -159 -189 -187 -226 -78 -109 -123 -176 -182 -270 -12 -19 -34 -54 -48
-77 -15 -24 -27 -49 -27 -58 0 -8 -4 -15 -8 -15 -5 0 -17 -20 -28 -45 -10 -25
-22 -45 -26 -45 -4 0 -7 -3 -6 -7 0 -5 -9 -30 -22 -58 -59 -131 -74 -166 -106
-250 -19 -49 -37 -98 -39 -107 -2 -9 -9 -27 -16 -40 -7 -13 -12 -24 -11 -25 1
-2 2 -4 1 -5 0 -2 -2 -10 -4 -18 -2 -8 -13 -49 -25 -90 -12 -41 -23 -82 -25
-90 -2 -8 -8 -35 -14 -60 -7 -25 -14 -56 -17 -70 -2 -14 -9 -47 -14 -75 -29
-145 -38 -213 -59 -440 -8 -78 -6 -496 2 -545 2 -14 7 -52 11 -85 4 -33 10
-67 13 -75 4 -8 6 -18 5 -22 -5 -22 64 -294 108 -433 18 -55 35 -110 37 -123
3 -12 9 -25 14 -28 5 -3 9 -13 9 -23 0 -10 8 -36 17 -57 9 -22 17 -41 18 -44
2 -5 2 -6 53 -130 19 -47 39 -98 46 -115 6 -16 15 -37 21 -45 5 -8 10 -19 11
-25 1 -5 32 -71 68 -146 36 -75 66 -141 66 -147 0 -6 3 -12 8 -14 6 -2 91
-161 126 -235 6 -13 15 -23 19 -23 5 0 6 -4 3 -9 -3 -5 1 -14 9 -21 8 -7 15
-16 15 -20 0 -5 32 -64 72 -132 39 -67 76 -133 82 -145 6 -13 14 -23 19 -23 4
0 7 -4 7 -9 0 -8 169 -285 192 -316 5 -5 47 -71 95 -145 49 -74 92 -139 96
-145 5 -5 55 -77 112 -160 57 -82 107 -154 112 -160 5 -5 24 -32 43 -60 19
-27 37 -52 40 -55 3 -3 37 -48 75 -100 38 -52 71 -97 74 -100 3 -3 19 -23 34
-46 15 -22 36 -50 47 -62 11 -12 20 -25 20 -31 0 -5 4 -11 8 -13 4 -1 37 -41
72 -88 36 -47 67 -87 70 -90 3 -3 37 -45 75 -95 38 -49 72 -92 75 -95 3 -3 41
-50 85 -105 43 -55 84 -105 90 -111 5 -6 26 -30 45 -54 53 -66 108 -132 133
-160 12 -14 42 -50 67 -80 43 -53 84 -101 105 -124 6 -6 35 -40 65 -75 30 -36
62 -72 70 -81 8 -9 38 -42 65 -74 28 -32 59 -68 70 -80 11 -12 52 -58 90 -101
39 -43 81 -90 95 -105 14 -15 59 -64 100 -109 78 -85 134 -145 258 -275 l72
-76 33 34 c100 104 270 286 382 410 11 12 56 63 101 112 45 49 96 107 115 129
19 22 39 45 45 50 6 6 37 42 70 80 32 39 62 72 65 75 3 3 32 37 65 75 86 102
98 116 109 129 6 6 35 40 64 75 29 35 58 70 64 76 7 7 26 30 42 51 17 21 55
68 85 105 69 83 114 138 163 201 55 70 78 98 132 167 33 42 81 103 105 136 25
33 50 65 55 71 6 6 18 22 28 35 10 13 56 76 103 139 47 63 91 122 98 131 84
102 476 679 628 924 152 246 191 312 306 520 100 181 321 627 326 660 1 6 5
15 9 22 23 36 175 451 193 528 7 29 10 38 17 55 13 30 69 279 83 365 3 17 7
44 9 60 15 96 20 183 19 380 0 201 -4 277 -20 405 -11 94 -23 174 -30 210 -2
14 -7 37 -9 53 -6 30 -7 39 -30 147 -9 41 -19 82 -22 90 -4 8 -7 22 -8 30 -2
18 -63 217 -75 245 -4 11 -27 70 -50 130 -50 129 -175 387 -224 463 -19 28
-33 52 -31 52 5 0 -140 215 -169 251 -12 14 -32 41 -46 59 -51 68 -137 167
-220 254 -110 114 -97 102 -176 173 -98 88 -115 102 -154 132 -19 14 -37 28
-40 31 -3 3 -21 17 -40 30 -19 13 -37 27 -40 30 -10 13 -168 118 -267 178
-120 73 -453 242 -477 242 -4 0 -26 8 -49 19 -69 30 -316 117 -324 113 -2 0
-17 4 -35 9 -38 12 -174 47 -203 54 -11 2 -33 7 -50 10 -16 3 -52 10 -80 15
-27 6 -68 13 -90 15 -22 3 -47 7 -55 10 -8 2 -46 7 -85 11 -38 3 -81 8 -95 11
-30 5 -537 13 -542 8z m62 -1915 c27 4 55 3 62 -1 6 -4 19 -4 29 1 9 5 19 7
23 3 5 -5 75 -7 94 -3 4 1 12 1 17 0 6 -1 69 -4 140 -5 129 -3 340 -13 399
-20 66 -8 162 -18 191 -21 17 -1 30 -3 30 -4 0 -2 32 -8 84 -15 25 -3 48 -8
52 -10 4 -3 24 -7 45 -11 22 -3 47 -10 57 -15 9 -5 17 -7 17 -3 0 3 7 1 15 -6
8 -7 15 -10 15 -6 0 11 112 -32 242 -93 48 -23 91 -41 97 -41 5 0 11 -4 13 -8
2 -5 23 -22 48 -39 57 -39 210 -196 210 -215 0 -4 6 -13 13 -20 21 -22 77
-106 77 -116 0 -6 3 -12 8 -14 4 -1 15 -16 25 -33 18 -30 162 -323 177 -360
12 -30 23 -59 26 -70 1 -5 6 -23 10 -40 4 -16 9 -170 11 -341 5 -350 8 -335
-71 -339 -42 -2 -48 2 -113 65 -158 152 -327 234 -548 266 -16 2 -776 4 -1687
4 -1406 0 -1659 3 -1671 14 -11 12 -14 84 -16 398 -1 211 -1 388 -2 393 -2
115 11 298 25 339 49 136 176 234 326 251 30 3 66 8 80 10 14 2 45 6 70 10 25
3 61 8 80 10 46 6 135 16 185 20 22 2 60 6 85 9 80 9 153 16 225 21 39 3 99 7
135 10 134 10 290 17 438 20 84 1 156 5 159 9 4 3 10 3 15 -2 5 -5 31 -6 58
-2z m1500 -1685 c19 -3 42 -7 50 -9 37 -6 109 -30 160 -54 90 -41 140 -79 231
-173 l85 -88 110 -2 c118 -2 158 -14 170 -51 10 -31 11 -271 1 -308 -14 -55
-35 -61 -228 -58 l-174 3 -6 25 c-4 14 -15 57 -24 95 -37 154 -146 278 -305
344 -83 35 -242 39 -330 8 -189 -66 -318 -217 -345 -402 -4 -28 -12 -56 -17
-62 -8 -10 -177 -13 -782 -13 -424 0 -776 4 -783 8 -6 4 -19 41 -27 82 -40
191 -174 338 -361 394 -50 15 -233 19 -250 6 -5 -5 -30 -13 -54 -20 -42 -11
-112 -49 -138 -76 -7 -7 -23 -21 -36 -31 -42 -33 -133 -174 -115 -179 2 0 -2
-7 -9 -15 -6 -8 -17 -43 -24 -79 -7 -36 -17 -71 -22 -77 -6 -9 -39 -13 -98
-13 -64 0 -89 3 -90 13 0 6 -3 21 -5 32 -6 23 -6 29 -1 72 2 18 11 39 21 46
17 13 19 32 18 248 0 129 -1 239 -2 244 -1 6 -1 15 0 20 1 6 3 21 4 35 1 14
11 29 22 35 23 11 3294 11 3354 0z m-2584 -436 c52 -20 154 -104 154 -127 0
-6 4 -12 10 -12 5 0 18 -29 29 -65 46 -154 -3 -295 -134 -385 -76 -52 -189
-70 -267 -44 -21 7 -38 10 -38 6 0 -4 -4 -2 -8 3 -4 6 -20 17 -37 25 -40 20
-111 93 -129 133 -25 52 -45 127 -34 127 5 0 6 6 1 12 -9 16 -5 59 11 123 18
75 144 206 189 197 4 -1 7 3 7 9 0 5 4 8 9 4 5 -3 12 -2 15 3 2 4 22 9 42 10
21 2 40 4 41 6 8 8 92 -8 139 -25z m2600 0 c47 -18 120 -77 161 -131 18 -24
44 -108 48 -153 8 -91 -35 -203 -102 -266 -134 -126 -347 -123 -468 7 -73 78
-96 132 -96 228 -2 135 70 250 191 307 84 40 173 43 266 8z"/>
<path d="M2952 6900 c-94 -4 -125 -8 -132 -20 -11 -18 -9 -675 3 -686 12 -13
674 -9 689 4 20 16 19 662 -1 686 -12 15 -38 17 -217 15 -111 -1 -206 0 -211
2 -4 2 -63 2 -131 -1z"/>
<path d="M4028 6905 c-2 -3 -73 -5 -158 -6 -131 0 -156 -3 -167 -17 -9 -13
-12 -94 -12 -344 0 -304 2 -329 18 -340 14 -10 97 -13 346 -12 279 1 330 4
339 16 18 24 15 660 -3 682 -12 14 -36 16 -176 15 -90 -1 -167 1 -173 4 -5 4
-11 4 -14 2z"/>
<path d="M4988 6905 c-3 -3 -91 -5 -196 -5 -154 -1 -194 -4 -206 -15 -22 -23
-22 -668 0 -686 12 -10 93 -13 346 -13 287 0 332 2 342 16 18 24 15 660 -3
682 -11 14 -33 16 -136 15 -67 -1 -127 1 -132 4 -6 4 -12 4 -15 2z"/>
<path d="M5463 6881 c-17 -28 -16 -649 1 -676 13 -20 23 -20 512 -18 274 1
502 2 505 2 3 1 11 12 17 25 8 18 7 28 -2 42 -8 11 -17 34 -21 52 -3 17 -11
32 -16 32 -5 0 -9 6 -9 14 0 13 -58 129 -108 217 -11 20 -26 47 -34 60 -72
128 -186 216 -330 253 -42 11 -116 15 -280 15 -207 0 -225 -1 -235 -18z"/>
<path d="M3233 5090 c-147 -35 -172 -238 -38 -308 119 -61 257 33 241 166 -8
71 -43 113 -111 136 -25 9 -49 16 -53 15 -4 -1 -22 -5 -39 -9z"/>
<path d="M5815 5084 c-49 -16 -83 -50 -100 -100 -12 -35 -12 -51 -2 -107 5
-29 56 -87 85 -99 125 -49 252 39 237 164 -8 62 -23 91 -66 121 -44 32 -101
40 -154 21z"/>
</g>
</svg>
